<?xml version="1.0" encoding="utf-8"?>
<!-- Generator: Adobe Illustrator 15.0.0, SVG Export Plug-In . SVG Version: 6.00 Build 0)  -->
<svg version="1.2" baseProfile="tiny" id="Layer_1" xmlns="http://www.w3.org/2000/svg" xmlns:xlink="http://www.w3.org/1999/xlink"
	 x="0px" y="0px" width="400px" height="140px" viewBox="0 0 400 140" xml:space="preserve">
<g>
	<path fill="#70e4ef" d="M12.487,81.263c0,0-0.298-0.238-0.892-0.715c-0.595-0.476-0.892-1.159-0.892-2.051
		c0-0.655,0.357-1.338,1.07-2.052c0.714-0.714,1.517-1.249,2.409-1.605c0.892-1.131,1.709-2.885,2.454-5.263
		c0.743-2.378,1.115-4.818,1.115-7.315l0.089-4.371c0.058-1.249,0.089-2.676,0.089-4.282l-0.089-3.658l-0.446-9.01
		c-0.416-11.775-1.07-22.153-1.962-31.134c-0.179,0.12-0.566,0.209-1.16,0.268c-0.952,0.298-1.844,0.446-2.676,0.446
		c-0.595,0-1.115-0.224-1.561-0.669C9.588,9.405,9.365,8.886,9.365,8.291c0-2.081,3.537-3.123,10.615-3.123h1.16
		c0.833,0,1.486,0.044,1.962,0.134s0.922,0.313,1.339,0.669c0.475,0.357,0.713,0.892,0.713,1.606c0,1.547-1.249,2.319-3.747,2.319
		c-0.06,0-0.088-0.029-0.088-0.089h-0.179h-1.16v0.714c0,1.547,0.179,3.835,0.536,6.869c0.296,3.45,0.445,5.77,0.445,6.958
		c0,4.223,0.297,9.991,0.892,17.306c0.475,6.9,0.714,12.698,0.714,17.396v3.568v3.568c0,3.568-0.758,6.734-2.275,9.501
		c-1.516,2.766-3.643,4.623-6.378,5.575C12.962,81.263,12.487,81.263,12.487,81.263z"/>
	<path fill="#70e4ef" d="M43.084,73.011c-1.308-0.98-2.379-2.305-3.211-3.97c-1.726-3.627-2.796-7.583-3.211-11.865
		c-0.536-4.043-0.803-7.939-0.803-11.686c0-0.714,0.029-1.308,0.089-1.784V42.1c0-0.297-0.031-0.446-0.089-0.446v-1.606l0.089-6.245
		c0.058-1.902,0.297-4.936,0.714-9.099c0.296-2.854,0.981-5.62,2.051-8.296c0.416-1.189,0.951-2.097,1.605-2.721
		c0.655-0.624,1.397-0.937,2.231-0.937c2.378,0,4.519,0.433,6.423,1.294c1.903,0.862,3.508,2.067,4.817,3.613
		c1.189,1.487,2.199,3.316,3.034,5.486c0.832,2.172,1.427,4.476,1.784,6.914c0.356,2.498,0.535,5.145,0.535,7.939v0.713
		c0,1.844,0.03,3.51,0.089,4.996l0.089,5.084c0,17.128-3.985,25.692-11.954,25.692C45.819,74.482,44.392,73.992,43.084,73.011z
		 M49.954,69.442c0.892-0.861,1.575-2.037,2.052-3.524c1.129-3.033,1.813-6.303,2.051-9.813c0.297-3.033,0.447-5.649,0.447-7.85
		c0-2.676-0.21-6.185-0.625-10.527c-0.356-4.579-0.535-7.998-0.535-10.259v-1.606c-0.12-2.259-0.878-4.222-2.275-5.888
		c-1.397-1.664-3.108-2.498-5.129-2.498c-2.022,0-3.36,1.16-4.014,3.479c-0.595,1.844-0.892,4.223-0.892,7.137
		c0,1.13,0.029,2.082,0.089,2.854v2.409l-0.179,4.104c-0.12,1.249-0.178,2.618-0.178,4.104c0,3.211,0.089,6.394,0.268,9.545
		c0.237,4.46,0.832,8.802,1.784,13.024c0.951,4.402,2.35,6.601,4.193,6.601C48.08,70.735,49.061,70.305,49.954,69.442z"/>
	<path fill="#70e4ef" d="M81.086,70.022c-1.249-3.092-2.172-6.274-2.766-9.545l-0.624-3.033c-1.726-8.504-2.826-13.351-3.301-14.542
		h-1.071c0,1.726-0.03,3.301-0.088,4.729v4.906c0,7.97,0.564,14.184,1.694,18.645l-0.98,2.408h-2.498l-1.16-1.338l0.089-5.977
		c0-5.353-0.268-13.471-0.803-24.354c-0.477-11.597-0.713-19.715-0.713-24.354c0-2.855,0.981-4.282,2.943-4.282
		c3.211,0,5.843,0.833,7.895,2.498c2.052,1.666,3.078,3.985,3.078,6.958v6.245c0,0.892-0.149,1.918-0.446,3.078
		c-0.298,1.159-0.625,2.096-0.981,2.81l-1.695,3.212l-1.427,2.676l0.446,2.141l1.25,6.334c0.831,4.581,1.634,8.296,2.408,11.151
		c0.771,2.854,1.724,5.441,2.854,7.761l0.536,1.071c0.594,1.19,0.892,2.14,0.892,2.854c0,0.595-0.179,1.115-0.536,1.562
		c-0.356,0.445-0.833,0.668-1.427,0.668C83.346,74.304,82.157,72.877,81.086,70.022z M77.027,33.135
		c0.922-2.944,1.383-5.665,1.383-8.163c0-1.902-0.238-3.687-0.713-5.352c-0.298-0.951-0.789-1.68-1.472-2.186
		c-0.684-0.504-1.531-0.758-2.542-0.758l-0.179,0.446l-0.179,0.803l0.179,10.527c0.119,3.093,0.179,6.453,0.179,10.081
		C74.989,37.878,76.104,36.079,77.027,33.135z"/>
	<path fill="#70e4ef" d="M109.9,72.967c-0.655-0.416-0.981-1.188-0.981-2.32c0-1.785-0.298-4.817-0.892-9.099l-0.356-1.874
		l-8.832-1.338c-0.356,1.369-0.863,4.134-1.517,8.297c-0.356,2.914-0.922,4.848-1.695,5.799c-0.416,0.535-1.012,0.803-1.784,0.803
		c-0.713,0-1.368-0.224-1.962-0.669c-0.596-0.447-0.892-0.996-0.892-1.651l0.178-0.445l0.088-0.357
		c3.926-15.284,6.899-30.36,8.922-45.229c0-0.236,0.029-0.638,0.089-1.204c0.058-0.564,0.118-1.382,0.178-2.453
		c0.179-2.2,0.371-3.955,0.58-5.263c0.208-1.308,0.55-2.289,1.027-2.944h3.033c0.832,0,1.545,0.194,2.141,0.58
		c0.594,0.388,0.892,0.937,0.892,1.65c0,4.521,0.625,11.24,1.874,20.161c1.188,9.159,1.784,15.582,1.784,19.269
		c0,0.356,0.147,1.279,0.446,2.766c0.297,1.369,0.446,2.261,0.446,2.676c0,0.417,0.296,2.201,0.892,5.353
		c0.535,2.855,0.803,4.699,0.803,5.531v0.089c0,1.31-0.477,2.142-1.427,2.498C111.564,73.591,110.554,73.382,109.9,72.967z
		 M106.778,53.162c0-5.353-0.477-12.191-1.427-20.518l-0.892-9.278c-2.558,13.976-4.313,24.532-5.263,31.668
		c0.892,0.595,3.508,1.071,7.851,1.428C106.867,55.571,106.778,54.471,106.778,53.162z"/>
	<path fill="#70e4ef" d="M144.78,72.476c-0.356-0.387-0.624-1.055-0.803-2.007l-0.535-1.695v-0.178v-0.268
		c0-1.963-2.037-8.653-6.11-20.072c-4.075-11.419-7.271-19.863-9.59-25.335v44.872l0.356,0.625c0.059,0.12,0.179,0.328,0.357,0.625
		c0.179,0.298,0.268,0.595,0.268,0.892c0,0.773-0.268,1.426-0.804,1.962c-0.535,0.536-1.189,0.803-1.962,0.803
		c-1.904,0-2.855-1.813-2.855-5.441l-0.089-15.254c-0.06-4.579-0.089-9.693-0.089-15.344c0-1.903,0.089-4.668,0.268-8.296
		c0.178-3.747,0.268-6.512,0.268-8.296c0-2.795,1.071-4.996,3.211-6.601V14c0.357-0.118,0.594-0.178,0.713-0.178
		c1.367,0,3.092,2.379,5.174,7.137c1.665,3.807,3.167,7.821,4.505,12.043c1.338,4.224,3.107,10.23,5.308,18.02l0.892,3.211
		c1.367,4.817,2.408,8.267,3.122,10.349c1.19-12.787,1.785-27.892,1.785-45.318v-1.16c-0.06-0.357-0.089-0.743-0.089-1.16
		c0-1.784,0.714-2.676,2.142-2.676c0.832,0,1.472,0.327,1.917,0.981c0.447,0.655,0.669,1.487,0.669,2.498v6.691
		c-0.12,9.159-0.477,19.091-1.071,29.795c-0.595,10.705-1.309,16.742-2.141,18.108c-1.726,0.477-2.796,0.715-3.212,0.715
		C145.672,73.056,145.137,72.861,144.78,72.476z"/>
	<path fill="#70e4ef" d="M197.769,83.85v-0.089c-1.605-0.714-2.736-2.023-3.39-3.925c-0.417-1.548-0.803-3.36-1.16-5.442
		c-0.238-1.427-0.388-2.26-0.446-2.498h-3.658c-3.153-2.081-5.473-4.817-6.958-8.207c-0.655-1.428-1.19-3.063-1.605-4.907
		c-0.417-1.842-0.684-3.657-0.803-5.441c-0.12-1.07-0.178-2.913-0.178-5.531l0.178-7.315c0.179-3.211,0.268-5.621,0.268-7.226
		l-0.089-2.854v-3.479c0-3.568,0.119-6.422,0.356-8.563c0.357-2.974,0.981-5.679,1.874-8.118c0.951-2.556,2.378-4.341,4.282-5.353
		c1.011-0.535,2.11-0.803,3.3-0.803c1.606,0,3.092,0.328,4.461,0.981c1.367,0.655,2.556,1.547,3.568,2.676
		c1.606,1.904,2.914,4.996,3.925,9.278c0.713,3.867,1.129,7.792,1.248,11.775c0.059,1.249,0.09,3.301,0.09,6.155v4.817
		c-0.061,1.369-0.09,2.796-0.09,4.282v4.014c0,5.353-0.342,9.516-1.025,12.489c-0.684,2.975-2.156,6.037-4.415,9.188l0.356,1.783
		c0.357,2.32,0.743,4.134,1.16,5.442c0.594,2.141,1.339,3.212,2.229,3.212h0.357c1.072,0,1.904,0.059,2.498,0.178
		c0.893,0.298,1.338,0.951,1.338,1.963c0,1.843-1.309,2.766-3.924,2.766C200.503,85.099,199.254,84.682,197.769,83.85z
		 M192.327,69.22c0.415-0.772,1.218-1.16,2.408-1.16v0.089c2.2-2.021,3.301-5.232,3.301-9.634V34.518
		c0-3.805-0.089-6.988-0.267-9.545c-0.238-3.33-0.774-6.452-1.605-9.367c-0.417-1.486-0.938-2.706-1.562-3.658
		c-0.624-0.951-1.413-1.753-2.364-2.408c-1.012-0.654-2.083-0.981-3.211-0.981c-1.071,0-1.963,1.547-2.676,4.639
		c-1.19,4.699-1.934,12.371-2.23,23.016c-0.12,4.164-0.179,6.869-0.179,8.118c0,2.558,0.148,5.501,0.447,8.832
		c0.296,3.628,1.07,7.137,2.319,10.527c0.594,1.665,1.367,2.988,2.319,3.969c0.951,0.981,2.052,1.532,3.301,1.65V69.22z"/>
	<path fill="#70e4ef" d="M222.301,73.189c-1.131-0.624-2.053-1.531-2.766-2.721c-1.428-2.499-2.352-5.322-2.766-8.475
		c-0.416-2.735-0.625-6.006-0.625-9.813c-0.178-6.423-0.268-14.273-0.268-23.551l-0.09-6.869c-0.061-0.356-0.088-0.95-0.088-1.784
		c-0.121-2.259-0.18-3.627-0.18-4.104c0.535-1.249,1.16-1.874,1.875-1.874c0.713,0,1.352,0.536,1.918,1.606
		c0.564,1.07,0.846,2.23,0.846,3.479v24.265c0,2.379,0.209,5.531,0.625,9.456c0.416,4.877,0.625,8.029,0.625,9.456
		c0,4.402,1.873,6.601,5.619,6.601c4.283,0,6.424-15.997,6.424-47.994v-4.996V15.07c-0.061-0.179-0.09-0.416-0.09-0.714
		c0-0.714,0.164-1.233,0.49-1.561c0.328-0.326,0.967-0.491,1.92-0.491c0.771,0,1.381,0.223,1.828,0.669
		c0.445,0.446,0.727,0.967,0.846,1.561c0.061,0.356,0.09,1.041,0.09,2.052c0,0.952-0.09,2.469-0.268,4.549
		c-0.238,1.726-0.355,3.212-0.355,4.461c0,1.368-0.061,2.586-0.18,3.657l-0.178,3.747v0.713c0.059,0.239,0.088,0.506,0.088,0.803
		c0,26.405-3.834,39.608-11.506,39.608C224.709,74.126,223.43,73.814,222.301,73.189z"/>
	<path fill="#70e4ef" d="M245.492,70.022c0-1.427,0.922-2.141,2.768-2.141h0.98l0.893,0.089c0.475,0,0.803-0.147,0.98-0.445
		c0.18-0.297,0.268-0.833,0.268-1.606c0-1.01-0.061-2.586-0.178-4.728c-0.178-1.428-0.387-3.984-0.625-7.672
		c-0.535-9.099-0.803-15.968-0.803-20.607c0-1.664,0.029-3.181,0.09-4.549l0.088-4.55c0-1.962-0.088-3.597-0.268-4.906
		c-0.951,0.238-1.635,0.357-2.051,0.357c-1.428,0-2.143-0.714-2.143-2.141c0-0.713,0.447-1.338,1.34-1.874s2.021-0.921,3.391-1.16
		c2.377-0.475,4.488-0.713,6.332-0.713c0.715,0,1.324,0.253,1.83,0.758c0.504,0.506,0.758,1.086,0.758,1.74
		c0,0.655-0.193,1.22-0.58,1.695c-0.389,0.476-0.877,0.713-1.471,0.713c-0.357,0-0.656-0.029-0.893-0.089h-0.715
		c-0.596,0-1.025,0.134-1.293,0.401c-0.268,0.268-0.4,0.759-0.4,1.472c0,5.769,0.355,14.452,1.068,26.049
		c0.119,2.141,0.357,5.294,0.715,9.456c0.297,2.736,0.445,5.531,0.445,8.385v3.39c0.357-0.059,0.951-0.089,1.785-0.089
		c2.498,0,3.746,1.042,3.746,3.123v0.535l-2.23,1.518c-0.059,0-0.254,0.015-0.58,0.044c-0.328,0.03-0.936,0.044-1.828,0.044
		c-1.904,0.12-3.121,0.179-3.658,0.179C248.08,72.698,245.492,71.807,245.492,70.022z"/>
	<path fill="#70e4ef" d="M291.703,72.476c-0.355-0.387-0.625-1.055-0.803-2.007l-0.535-1.695v-0.178v-0.268
		c0-1.963-2.037-8.653-6.111-20.072c-4.074-11.419-7.27-19.863-9.59-25.335v44.872l0.357,0.625c0.059,0.12,0.178,0.328,0.357,0.625
		c0.178,0.298,0.268,0.595,0.268,0.892c0,0.773-0.268,1.426-0.805,1.962c-0.533,0.536-1.189,0.803-1.961,0.803
		c-1.904,0-2.855-1.813-2.855-5.441l-0.09-15.254c-0.059-4.579-0.088-9.693-0.088-15.344c0-1.903,0.088-4.668,0.268-8.296
		c0.178-3.747,0.268-6.512,0.268-8.296c0-2.795,1.07-4.996,3.211-6.601V14c0.357-0.118,0.594-0.178,0.715-0.178
		c1.367,0,3.09,2.379,5.174,7.137c1.664,3.807,3.166,7.821,4.504,12.043c1.338,4.224,3.107,10.23,5.309,18.02l0.893,3.211
		c1.367,4.817,2.408,8.267,3.121,10.349c1.189-12.787,1.785-27.892,1.785-45.318v-1.16c-0.061-0.357-0.09-0.743-0.09-1.16
		c0-1.784,0.715-2.676,2.141-2.676c0.832,0,1.473,0.327,1.918,0.981c0.447,0.655,0.67,1.487,0.67,2.498v6.691
		c-0.119,9.159-0.477,19.091-1.07,29.795c-0.596,10.705-1.311,16.742-2.141,18.108c-1.727,0.477-2.797,0.715-3.213,0.715
		C292.596,73.056,292.061,72.861,291.703,72.476z"/>
	<path fill="#70e4ef" d="M316.682,71.359l-0.09-3.478c-0.061-1.011-0.09-2.141-0.09-3.39l0.09-3.033
		c-0.178-0.654-0.625-7.166-1.338-19.537c-0.715-12.369-1.131-20.309-1.25-23.818c-3.449-0.119-5.65-0.476-6.6-1.071
		c-0.656-0.475-0.982-1.01-0.982-1.605c0-0.476,0.313-0.906,0.936-1.294c0.625-0.386,1.264-0.58,1.918-0.58
		c1.666,0,3.688,0.12,6.066,0.357c2.26,0.298,4.283,0.446,6.066,0.446h0.715h0.713c1.844,0,2.766,0.714,2.766,2.141
		c0,0.714-0.299,1.293-0.893,1.739c-0.594,0.446-1.279,0.669-2.051,0.669c-0.535,0-1.309-0.089-2.32-0.268l-1.783-0.357l-0.09,0.446
		l-0.088,0.446c0,5.294,0.504,13.738,1.516,25.335c0.949,10.884,1.428,19.329,1.428,25.335c0,0.714-0.313,1.339-0.938,1.873
		c-0.625,0.536-1.324,0.803-2.096,0.803L316.682,71.359z"/>
	<path fill="#70e4ef" d="M336.529,73.145c-0.625-0.535-0.969-1.189-1.027-1.962v-2.32v-1.784c-0.059-0.535-0.088-1.16-0.088-1.874
		c0-1.249-0.09-3.151-0.268-5.709l-0.18-5.71c0-2.913,0.09-7.255,0.27-13.024c0.236-5.173,0.355-9.514,0.355-13.024
		c0-0.832-0.09-2.081-0.268-3.747c-0.178-1.724-0.268-2.973-0.268-3.747c0-4.222,1.248-6.333,3.746-6.333
		c1.963,0,4.238,0.387,6.826,1.16c2.586,0.773,3.881,1.695,3.881,2.765c0,0.595-0.256,1.146-0.76,1.65
		c-0.506,0.506-1.115,0.907-1.828,1.204c-2.498-0.892-4.76-1.485-6.779-1.784c0.057,0.892,0.088,2.171,0.088,3.835
		c0,2.38-0.031,4.521-0.088,6.423c-0.18,2.854-0.27,4.996-0.27,6.423l0.27,1.427l1.426-0.089c0.477-0.059,1.072-0.089,1.785-0.089
		c2.855,0,4.281,0.833,4.281,2.498c0,0.655-0.268,1.204-0.803,1.65c-0.535,0.446-1.219,0.669-2.051,0.669
		c-1.07,0-1.904-0.059-2.498-0.178h-2.23c0.119,1.547,0.178,3.807,0.178,6.78c0,2.974-0.031,5.651-0.088,8.028
		c-0.18,3.628-0.27,6.334-0.27,8.118c0,3.332,0.061,4.996,0.18,4.996l2.943-0.089c1.012-0.059,2.23-0.089,3.658-0.089
		c2.26,0,3.389,0.713,3.389,2.14c0,0.835-0.371,1.474-1.113,1.919c-0.746,0.446-1.652,0.669-2.721,0.669h-7.584
		C337.852,73.947,337.154,73.68,336.529,73.145z"/>
	<path fill="#70e4ef" d="M382.605,72.476c-0.357-0.387-0.625-1.055-0.803-2.007l-0.535-1.695v-0.178v-0.268
		c0-1.963-2.039-8.653-6.111-20.072c-4.074-11.419-7.271-19.863-9.59-25.335v44.872l0.355,0.625c0.061,0.12,0.18,0.328,0.357,0.625
		c0.18,0.298,0.27,0.595,0.27,0.892c0,0.773-0.27,1.426-0.805,1.962s-1.189,0.803-1.961,0.803c-1.904,0-2.855-1.813-2.855-5.441
		l-0.09-15.254c-0.061-4.579-0.09-9.693-0.09-15.344c0-1.903,0.09-4.668,0.268-8.296c0.18-3.747,0.27-6.512,0.27-8.296
		c0-2.795,1.07-4.996,3.211-6.601V14c0.357-0.118,0.594-0.178,0.713-0.178c1.367,0,3.092,2.379,5.174,7.137
		c1.666,3.807,3.168,7.821,4.506,12.043c1.338,4.224,3.107,10.23,5.307,18.02l0.893,3.211c1.367,4.817,2.408,8.267,3.123,10.349
		c1.189-12.787,1.783-27.892,1.783-45.318v-1.16c-0.059-0.357-0.088-0.743-0.088-1.16c0-1.784,0.713-2.676,2.141-2.676
		c0.832,0,1.473,0.327,1.918,0.981c0.445,0.655,0.67,1.487,0.67,2.498v6.691c-0.121,9.159-0.479,19.091-1.072,29.795
		c-0.594,10.705-1.309,16.742-2.141,18.108c-1.727,0.477-2.795,0.715-3.211,0.715C383.496,73.056,382.961,72.861,382.605,72.476z"/>
	<path fill="#70e4ef" d="M46.385,104.479c1.293,0.609,2.341,1.554,3.144,2.832c0.803,1.28,1.205,2.856,1.205,4.729v14.273h-3.568
		v-13.916c0-1.934-0.484-3.368-1.45-4.305c-0.967-0.937-2.237-1.405-3.813-1.405c-1.189,0-2.282,0.291-3.278,0.87
		c-0.996,0.58-1.799,1.428-2.409,2.542c-0.609,1.115-0.914,2.447-0.914,3.992v12.222h-3.569v-13.916
		c0-1.934-0.483-3.368-1.449-4.305c-0.967-0.937-2.238-1.405-3.814-1.405c-1.07,0-2.111,0.276-3.122,0.825
		c-1.011,0.55-1.844,1.405-2.498,2.564c-0.654,1.16-0.981,2.603-0.981,4.327v11.909H16.3v-22.302h3.122l0.223,3.479
		c0.773-1.308,1.791-2.289,3.056-2.943c1.263-0.653,2.624-0.981,4.082-0.981c1.634,0,3.144,0.373,4.527,1.115
		c1.383,0.743,2.431,1.828,3.144,3.256c0.654-1.428,1.725-2.513,3.212-3.256c1.486-0.742,3.002-1.115,4.549-1.115
		C43.701,103.564,45.091,103.869,46.385,104.479z"/>
	<path fill="#70e4ef" d="M78.366,106.643c1.917,2.051,2.877,4.892,2.877,8.52s-0.959,6.467-2.877,8.519
		c-1.918,2.052-4.558,3.078-7.917,3.078c-3.36,0-5.999-1.026-7.917-3.078c-1.919-2.052-2.877-4.891-2.877-8.519
		s0.958-6.469,2.877-8.52c1.918-2.052,4.557-3.078,7.917-3.078C73.808,103.564,76.448,104.591,78.366,106.643z M65.141,108.917
		c-1.279,1.517-1.919,3.599-1.919,6.245s0.64,4.727,1.919,6.244c1.278,1.517,3.047,2.274,5.308,2.274
		c2.259,0,4.029-0.758,5.308-2.274c1.278-1.518,1.918-3.598,1.918-6.244s-0.64-4.729-1.918-6.245
		c-1.279-1.517-3.048-2.274-5.308-2.274C68.188,106.643,66.419,107.4,65.141,108.917z"/>
	<path fill="#70e4ef" d="M108.896,104.011l-9.278,22.302H96.05l-9.277-22.302h4.059l7.048,18.689l7.27-18.689H108.896z"/>
	<path fill="#70e4ef" d="M115.653,98.993c-0.491-0.491-0.736-1.138-0.736-1.94s0.245-1.449,0.736-1.941
		c0.491-0.489,1.137-0.735,1.94-0.735c0.803,0,1.45,0.246,1.94,0.735c0.491,0.492,0.736,1.139,0.736,1.941s-0.245,1.449-0.736,1.94
		c-0.491,0.49-1.138,0.734-1.94,0.734C116.79,99.728,116.144,99.483,115.653,98.993z M119.377,126.313h-3.568v-22.302h3.568V126.313
		z"/>
	<path fill="#70e4ef" d="M146.988,105.75c1.635,1.457,2.453,3.554,2.453,6.289v14.273h-3.569v-13.024
		c0-2.318-0.498-3.999-1.493-5.04c-0.997-1.041-2.328-1.562-3.992-1.562c-1.19,0-2.305,0.262-3.346,0.78
		c-1.041,0.521-1.896,1.368-2.565,2.543c-0.668,1.175-1.003,2.653-1.003,4.438v11.865h-3.568v-22.302h3.122l0.223,3.479
		c0.743-1.338,1.769-2.326,3.078-2.966c1.308-0.64,2.779-0.959,4.416-0.959C143.27,103.564,145.352,104.294,146.988,105.75z"/>
	<path fill="#70e4ef" d="M177.139,124.885c1.188,0.952,1.784,2.245,1.784,3.882c0,1.427-0.491,2.683-1.472,3.769
		c-0.981,1.085-2.313,1.917-3.992,2.497c-1.68,0.58-3.532,0.87-5.554,0.87c-3.39,0-5.947-0.542-7.672-1.629
		c-1.724-1.084-2.586-2.504-2.586-4.259c0-1.011,0.349-1.903,1.047-2.676c0.699-0.774,1.657-1.323,2.877-1.651
		c-0.923-0.445-1.658-1.01-2.208-1.694c-0.55-0.684-0.826-1.486-0.826-2.408c0-1.101,0.297-2.015,0.892-2.744
		c0.595-0.728,1.412-1.271,2.454-1.627c-1.071-0.654-1.881-1.51-2.431-2.565c-0.551-1.055-0.826-2.237-0.826-3.547
		c0-1.456,0.387-2.756,1.16-3.901c0.772-1.146,1.858-2.037,3.256-2.677c1.396-0.64,2.973-0.959,4.728-0.959
		c1.665,0,3.182,0.297,4.55,0.892c0.832-3.032,2.928-4.55,6.29-4.55l0.803,3.123c-2.915,0-4.684,0.817-5.309,2.453
		c0.892,0.685,1.583,1.502,2.074,2.453c0.491,0.952,0.736,2.007,0.736,3.166c0,1.459-0.387,2.76-1.16,3.904
		c-0.773,1.146-1.859,2.036-3.257,2.675c-1.397,0.642-2.974,0.96-4.728,0.96c-1.309,0-2.454-0.134-3.434-0.401
		c-0.892,0.208-1.532,0.536-1.919,0.981c-0.386,0.445-0.579,1.056-0.579,1.828c0,0.773,0.267,1.368,0.803,1.784
		c0.535,0.417,1.248,0.624,2.141,0.624h7.404C174.299,123.457,175.95,123.935,177.139,124.885z M173.66,131.821
		c1.309-0.729,1.963-1.613,1.963-2.653c0-0.864-0.335-1.518-1.003-1.963c-0.669-0.446-1.807-0.67-3.413-0.67h-5.976
		c-1.368,0-2.424,0.246-3.167,0.735c-0.744,0.492-1.115,1.168-1.115,2.03c0,1.13,0.625,2.014,1.873,2.654
		c1.249,0.64,3.078,0.959,5.486,0.959C170.566,132.914,172.351,132.549,173.66,131.821z M163.891,107.757
		c-1.041,0.863-1.561,1.979-1.561,3.345c0,1.368,0.52,2.484,1.561,3.346c1.041,0.864,2.334,1.294,3.881,1.294
		c1.546,0,2.839-0.43,3.881-1.294c1.04-0.861,1.561-1.978,1.561-3.346c0-1.366-0.521-2.481-1.561-3.345
		c-1.042-0.861-2.335-1.293-3.881-1.293C166.225,106.464,164.932,106.896,163.891,107.757z"/>
	<path fill="#70e4ef" d="M222.301,106.664c1.828,2.068,2.742,4.9,2.742,8.498s-0.914,6.43-2.742,8.496
		c-1.828,2.067-4.305,3.101-7.428,3.101c-1.635,0-3.1-0.357-4.393-1.071c-1.295-0.713-2.299-1.665-3.012-2.854v12.847h-3.566
		v-31.669h3.121l0.223,3.88c0.654-1.308,1.658-2.356,3.01-3.145c1.354-0.787,2.893-1.182,4.617-1.182
		C217.996,103.564,220.473,104.599,222.301,106.664z M219.602,121.339c1.248-1.531,1.873-3.591,1.873-6.177
		c0-2.587-0.625-4.646-1.873-6.178c-1.25-1.532-2.959-2.298-5.129-2.298c-2.141,0-3.844,0.744-5.107,2.23
		c-1.264,1.487-1.896,3.479-1.896,5.977v0.535c0,2.498,0.633,4.49,1.896,5.978s2.967,2.229,5.107,2.229
		C216.643,123.636,218.352,122.871,219.602,121.339z"/>
	<path fill="#70e4ef" d="M236.305,98.993c-0.49-0.491-0.736-1.138-0.736-1.94s0.246-1.449,0.736-1.941
		c0.49-0.489,1.137-0.735,1.939-0.735s1.451,0.246,1.941,0.735c0.49,0.492,0.736,1.139,0.736,1.941s-0.246,1.449-0.736,1.94
		c-0.49,0.49-1.139,0.734-1.941,0.734S236.795,99.483,236.305,98.993z M240.029,126.313h-3.568v-22.302h3.568V126.313z"/>
	<path fill="#70e4ef" d="M271.029,126.313l-6.156-8.608l-6.332,8.608h-4.15l8.564-11.24l-8.029-11.062h4.461l5.889,8.251
		l5.799-8.251h4.191l-8.072,10.928l8.207,11.374H271.029z"/>
	<path fill="#70e4ef" d="M312.465,116.499H295.65c0.207,2.261,0.959,4.015,2.252,5.265c1.295,1.248,2.967,1.872,5.018,1.872
		c1.637,0,2.996-0.281,4.082-0.847c1.084-0.565,1.82-1.383,2.207-2.453l2.99,1.561c-0.893,1.577-2.082,2.781-3.57,3.613
		c-1.486,0.832-3.389,1.249-5.709,1.249c-3.359,0-5.998-1.026-7.916-3.078s-2.877-4.891-2.877-8.519s0.914-6.469,2.742-8.52
		c1.828-2.052,4.424-3.078,7.783-3.078c2.082,0,3.881,0.461,5.396,1.383c1.518,0.922,2.662,2.171,3.436,3.746
		c0.773,1.577,1.16,3.346,1.16,5.309C312.645,114.834,312.584,115.668,312.465,116.499z M297.902,108.427
		c-1.205,1.16-1.939,2.795-2.209,4.906h13.516c-0.238-2.082-0.922-3.71-2.051-4.885c-1.131-1.175-2.633-1.762-4.506-1.762
		C300.689,106.687,299.107,107.267,297.902,108.427z"/>
	<path fill="#70e4ef" d="M340.656,120.336c0,1.13,0.17,1.911,0.512,2.341c0.342,0.432,0.975,0.647,1.896,0.647
		c0.623,0,1.166-0.045,1.627-0.134s1.004-0.252,1.629-0.49l-0.58,3.434c-0.98,0.416-2.082,0.625-3.301,0.625
		c-1.814,0-3.16-0.491-4.037-1.473c-0.877-0.98-1.314-2.482-1.314-4.504v-27.03h3.568V120.336z"/>
	<path fill="#70e4ef" d="M375,125.486c-1.725-0.847-2.988-2.103-3.791-3.768l2.898-2.008c0.506,1.309,1.383,2.29,2.633,2.943
		c1.248,0.655,2.721,0.981,4.416,0.981c1.754,0,3.092-0.312,4.014-0.936c0.922-0.626,1.383-1.413,1.383-2.364
		c0-0.863-0.432-1.554-1.293-2.075c-0.863-0.519-2.379-0.973-4.551-1.36c-2.141-0.385-3.836-0.854-5.084-1.405
		c-1.25-0.549-2.156-1.248-2.721-2.095c-0.564-0.849-0.848-1.897-0.848-3.146c0-1.219,0.357-2.334,1.07-3.346
		c0.713-1.01,1.74-1.821,3.076-2.431c1.34-0.609,2.885-0.914,4.641-0.914c2.379,0,4.289,0.439,5.73,1.315
		c1.443,0.879,2.477,2.224,3.1,4.037l-3.031,1.783c-0.477-1.427-1.197-2.452-2.164-3.076c-0.967-0.625-2.178-0.938-3.635-0.938
		s-2.693,0.327-3.703,0.981c-1.012,0.654-1.516,1.412-1.516,2.274c0,0.981,0.438,1.739,1.316,2.275
		c0.875,0.535,2.445,0.996,4.705,1.383c3.092,0.506,5.277,1.265,6.557,2.274c1.277,1.012,1.918,2.438,1.918,4.283
		c0,1.277-0.379,2.415-1.139,3.411c-0.758,0.997-1.842,1.777-3.254,2.342c-1.414,0.564-3.057,0.848-4.93,0.848
		C378.658,126.759,376.725,126.335,375,125.486z"/>
</g>
</svg>
