<?xml version="1.0" encoding="utf-8"?>
<!-- Generator: Adobe Illustrator 15.0.0, SVG Export Plug-In . SVG Version: 6.00 Build 0)  -->
<svg version="1.2" baseProfile="tiny" id="Layer_1" xmlns="http://www.w3.org/2000/svg" xmlns:xlink="http://www.w3.org/1999/xlink"
	 x="0px" y="0px" width="300px" height="300px" viewBox="0 0 300 300" xml:space="preserve">
<g>
	<path fill="#82D1E1" d="M300,270c0,16.568-13.432,30-30,30H30c-16.568,0-30-13.432-30-30V30C0,13.432,13.432,0,30,0h240
		c16.568,0,30,13.432,30,30V270z"/>
	<g>
		<path fill="#091512" d="M36.466,156.819c0,0-0.181-0.145-0.54-0.433c-0.36-0.288-0.541-0.702-0.541-1.242
			c0-0.396,0.217-0.81,0.648-1.242c0.433-0.433,0.919-0.756,1.459-0.972c0.54-0.685,1.034-1.747,1.485-3.188
			c0.45-1.439,0.675-2.917,0.675-4.429l0.055-2.646c0.035-0.756,0.054-1.62,0.054-2.593l-0.054-2.215l-0.271-5.455
			c-0.252-7.13-0.647-13.413-1.188-18.851c-0.107,0.072-0.343,0.126-0.702,0.162c-0.576,0.181-1.116,0.271-1.62,0.271
			c-0.36,0-0.676-0.136-0.945-0.406c-0.271-0.27-0.405-0.584-0.405-0.944c0-1.261,2.142-1.891,6.428-1.891h0.702
			c0.504,0,0.899,0.026,1.188,0.081c0.289,0.054,0.559,0.188,0.811,0.405c0.288,0.216,0.433,0.539,0.433,0.972
			c0,0.937-0.756,1.404-2.269,1.404c-0.037,0-0.054-0.018-0.054-0.054h-0.108h-0.702v0.433c0,0.937,0.108,2.322,0.324,4.158
			c0.18,2.089,0.27,3.493,0.27,4.213c0,2.558,0.181,6.05,0.54,10.479c0.288,4.179,0.433,7.689,0.433,10.533v2.16v2.161
			c0,2.16-0.459,4.077-1.378,5.752c-0.918,1.675-2.205,2.8-3.861,3.376C36.753,156.819,36.466,156.819,36.466,156.819z"/>
		<path fill="#091512" d="M54.991,151.823c-0.792-0.594-1.44-1.396-1.944-2.403c-1.045-2.196-1.693-4.592-1.944-7.185
			c-0.324-2.448-0.486-4.807-0.486-7.075c0-0.433,0.019-0.792,0.055-1.08v-0.973c0-0.18-0.02-0.271-0.055-0.271v-0.972l0.055-3.781
			c0.035-1.151,0.179-2.988,0.432-5.509c0.18-1.729,0.595-3.403,1.242-5.023c0.252-0.72,0.576-1.27,0.972-1.647
			c0.396-0.378,0.846-0.567,1.352-0.567c1.439,0,2.735,0.262,3.889,0.783c1.152,0.522,2.124,1.252,2.916,2.188
			c0.721,0.9,1.332,2.008,1.837,3.322c0.504,1.314,0.864,2.71,1.08,4.186c0.216,1.513,0.324,3.115,0.324,4.807v0.433
			c0,1.116,0.018,2.125,0.054,3.025l0.055,3.078c0,10.37-2.413,15.556-7.238,15.556C56.647,152.714,55.783,152.417,54.991,151.823z
			 M59.15,149.663c0.54-0.522,0.954-1.233,1.242-2.135c0.684-1.836,1.098-3.815,1.242-5.94c0.181-1.837,0.271-3.421,0.271-4.753
			c0-1.621-0.127-3.745-0.378-6.374c-0.216-2.772-0.324-4.843-0.324-6.212v-0.972c-0.072-1.368-0.532-2.557-1.378-3.565
			c-0.846-1.008-1.882-1.513-3.105-1.513c-1.225,0-2.034,0.702-2.431,2.107c-0.36,1.116-0.54,2.557-0.54,4.321
			c0,0.684,0.018,1.26,0.055,1.728v1.459l-0.108,2.484c-0.072,0.756-0.108,1.585-0.108,2.484c0,1.944,0.055,3.871,0.162,5.779
			c0.144,2.7,0.504,5.329,1.08,7.886c0.576,2.666,1.423,3.997,2.539,3.997C58.016,150.445,58.61,150.185,59.15,149.663z"/>
		<path fill="#091512" d="M78.001,150.014c-0.756-1.872-1.315-3.799-1.675-5.779l-0.378-1.836c-1.045-5.15-1.711-8.085-1.999-8.805
			h-0.647c0,1.045-0.019,1.998-0.054,2.862v2.971c0,4.826,0.342,8.588,1.025,11.289l-0.594,1.458h-1.512l-0.703-0.81l0.055-3.619
			c0-3.241-0.162-8.156-0.486-14.746c-0.289-7.021-0.432-11.937-0.432-14.745c0-1.729,0.594-2.593,1.781-2.593
			c1.945,0,3.539,0.504,4.78,1.513c1.243,1.008,1.864,2.412,1.864,4.213v3.78c0,0.54-0.091,1.162-0.271,1.863
			c-0.181,0.702-0.378,1.27-0.594,1.702l-1.026,1.944l-0.864,1.62l0.271,1.297l0.756,3.835c0.504,2.773,0.989,5.022,1.458,6.752
			c0.468,1.729,1.044,3.295,1.729,4.698l0.324,0.649c0.359,0.72,0.54,1.295,0.54,1.728c0,0.36-0.107,0.675-0.324,0.945
			c-0.216,0.271-0.504,0.405-0.864,0.405C79.369,152.606,78.649,151.742,78.001,150.014z M75.543,127.679
			c0.558-1.782,0.837-3.43,0.837-4.942c0-1.151-0.144-2.231-0.432-3.24c-0.181-0.575-0.478-1.018-0.892-1.323
			s-0.927-0.459-1.539-0.459l-0.108,0.27l-0.107,0.486l0.107,6.374c0.072,1.872,0.108,3.907,0.108,6.104
			C74.31,130.551,74.984,129.462,75.543,127.679z"/>
		<path fill="#091512" d="M95.447,151.796c-0.396-0.251-0.595-0.72-0.595-1.404c0-1.08-0.181-2.916-0.54-5.51l-0.216-1.134
			l-5.348-0.811c-0.216,0.829-0.522,2.503-0.918,5.024c-0.216,1.764-0.559,2.935-1.026,3.511c-0.252,0.323-0.613,0.485-1.08,0.485
			c-0.433,0-0.829-0.135-1.188-0.405c-0.36-0.271-0.54-0.603-0.54-0.999l0.108-0.27l0.054-0.217
			c2.377-9.254,4.177-18.383,5.401-27.385c0-0.144,0.018-0.387,0.054-0.729c0.035-0.341,0.071-0.836,0.107-1.485
			c0.108-1.331,0.225-2.394,0.352-3.187c0.126-0.791,0.333-1.386,0.622-1.782h1.836c0.504,0,0.936,0.117,1.296,0.351
			c0.359,0.235,0.54,0.567,0.54,0.999c0,2.737,0.379,6.807,1.135,12.207c0.72,5.547,1.08,9.436,1.08,11.668
			c0,0.216,0.089,0.774,0.27,1.675c0.181,0.828,0.271,1.368,0.271,1.619c0,0.253,0.18,1.333,0.54,3.241
			c0.324,1.729,0.486,2.846,0.486,3.349v0.055c0,0.792-0.288,1.296-0.864,1.512C96.455,152.174,95.843,152.048,95.447,151.796z
			 M93.557,139.805c0-3.24-0.289-7.381-0.864-12.423l-0.54-5.617c-1.549,8.462-2.611,14.854-3.188,19.175
			c0.541,0.36,2.125,0.648,4.754,0.864C93.61,141.263,93.557,140.598,93.557,139.805z"/>
		<path fill="#091512" d="M116.565,151.499c-0.216-0.234-0.378-0.639-0.485-1.215l-0.324-1.026v-0.108v-0.162
			c0-1.188-1.233-5.239-3.7-12.152c-2.467-6.914-4.401-12.026-5.806-15.34v27.168l0.215,0.378c0.036,0.073,0.108,0.198,0.217,0.379
			s0.162,0.36,0.162,0.539c0,0.469-0.162,0.864-0.486,1.188c-0.324,0.325-0.721,0.486-1.188,0.486c-1.152,0-1.729-1.098-1.729-3.295
			l-0.054-9.236c-0.036-2.771-0.055-5.869-0.055-9.29c0-1.152,0.055-2.826,0.162-5.023c0.108-2.269,0.163-3.942,0.163-5.022
			c0-1.692,0.647-3.025,1.944-3.997v0.323c0.216-0.071,0.359-0.107,0.432-0.107c0.828,0,1.872,1.44,3.133,4.321
			c1.008,2.304,1.918,4.734,2.728,7.291c0.811,2.558,1.882,6.194,3.214,10.911l0.54,1.944c0.828,2.917,1.458,5.005,1.891,6.266
			c0.72-7.742,1.08-16.888,1.08-27.438v-0.702c-0.036-0.216-0.054-0.45-0.054-0.702c0-1.08,0.433-1.621,1.297-1.621
			c0.504,0,0.891,0.198,1.161,0.594c0.27,0.397,0.405,0.901,0.405,1.514v4.05c-0.073,5.546-0.289,11.56-0.648,18.041
			c-0.36,6.481-0.793,10.138-1.297,10.965c-1.045,0.288-1.692,0.433-1.944,0.433C117.105,151.851,116.782,151.732,116.565,151.499z"
			/>
		<path fill="#091512" d="M148.649,158.386v-0.054c-0.973-0.433-1.657-1.226-2.053-2.377c-0.253-0.937-0.486-2.034-0.702-3.295
			c-0.145-0.864-0.234-1.368-0.27-1.513h-2.215c-1.909-1.26-3.313-2.916-4.214-4.969c-0.396-0.864-0.721-1.854-0.972-2.972
			c-0.253-1.114-0.414-2.214-0.486-3.294c-0.072-0.647-0.108-1.764-0.108-3.349l0.108-4.429c0.108-1.944,0.162-3.403,0.162-4.376
			l-0.054-1.729v-2.106c0-2.16,0.071-3.889,0.216-5.185c0.216-1.801,0.594-3.438,1.134-4.916c0.576-1.548,1.44-2.628,2.593-3.24
			c0.612-0.324,1.278-0.486,1.999-0.486c0.972,0,1.872,0.198,2.7,0.595c0.828,0.396,1.548,0.937,2.161,1.62
			c0.972,1.152,1.764,3.024,2.376,5.617c0.433,2.341,0.684,4.718,0.756,7.13c0.036,0.756,0.055,1.998,0.055,3.727v2.917
			c-0.036,0.829-0.055,1.693-0.055,2.593v2.431c0,3.24-0.207,5.762-0.621,7.562c-0.414,1.802-1.305,3.655-2.673,5.563l0.216,1.08
			c0.216,1.404,0.449,2.503,0.702,3.295c0.359,1.296,0.811,1.944,1.351,1.944h0.216c0.648,0,1.152,0.036,1.513,0.108
			c0.54,0.18,0.81,0.575,0.81,1.188c0,1.116-0.792,1.675-2.376,1.675C150.305,159.142,149.549,158.89,148.649,158.386z
			 M145.354,149.528c0.251-0.469,0.737-0.703,1.458-0.703v0.054c1.332-1.223,1.998-3.168,1.998-5.833v-14.529
			c0-2.305-0.054-4.231-0.161-5.78c-0.145-2.016-0.469-3.906-0.973-5.671c-0.252-0.9-0.567-1.638-0.945-2.215
			c-0.378-0.575-0.855-1.062-1.432-1.458c-0.612-0.396-1.261-0.594-1.944-0.594c-0.648,0-1.188,0.937-1.62,2.808
			c-0.721,2.846-1.171,7.49-1.351,13.936c-0.072,2.521-0.107,4.16-0.107,4.916c0,1.548,0.09,3.331,0.27,5.347
			c0.18,2.197,0.648,4.321,1.404,6.374c0.359,1.009,0.828,1.81,1.404,2.403c0.576,0.595,1.243,0.928,1.999,0.999V149.528z"/>
		<path fill="#091512" d="M163.503,151.931c-0.685-0.378-1.243-0.927-1.675-1.646c-0.864-1.514-1.424-3.223-1.675-5.132
			c-0.252-1.656-0.378-3.637-0.378-5.941c-0.108-3.89-0.162-8.642-0.162-14.26l-0.054-4.159c-0.036-0.216-0.054-0.575-0.054-1.08
			c-0.073-1.368-0.108-2.196-0.108-2.484c0.324-0.757,0.702-1.135,1.135-1.135c0.432,0,0.818,0.324,1.161,0.973
			c0.342,0.648,0.513,1.35,0.513,2.106v14.691c0,1.44,0.126,3.35,0.378,5.726c0.252,2.953,0.379,4.861,0.379,5.726
			c0,2.665,1.134,3.997,3.402,3.997c2.593,0,3.889-9.687,3.889-29.06v-3.024v-0.486c-0.036-0.108-0.054-0.251-0.054-0.432
			c0-0.433,0.099-0.747,0.297-0.945c0.198-0.197,0.585-0.298,1.161-0.298c0.468,0,0.837,0.136,1.107,0.405
			c0.27,0.271,0.44,0.586,0.513,0.945c0.036,0.216,0.055,0.631,0.055,1.242c0,0.577-0.055,1.495-0.162,2.755
			c-0.145,1.045-0.216,1.944-0.216,2.7c0,0.829-0.037,1.566-0.108,2.215l-0.108,2.269v0.433c0.036,0.144,0.055,0.306,0.055,0.486
			c0,15.987-2.322,23.981-6.968,23.981C164.961,152.498,164.186,152.31,163.503,151.931z"/>
		<path fill="#091512" d="M177.545,150.014c0-0.864,0.559-1.296,1.675-1.296h0.595l0.54,0.053c0.287,0,0.486-0.089,0.594-0.27
			c0.108-0.18,0.162-0.504,0.162-0.973c0-0.611-0.036-1.566-0.107-2.862c-0.108-0.864-0.235-2.412-0.379-4.645
			c-0.323-5.51-0.486-9.669-0.486-12.478c0-1.008,0.019-1.926,0.055-2.755l0.054-2.755c0-1.188-0.054-2.178-0.162-2.97
			c-0.576,0.144-0.99,0.216-1.242,0.216c-0.864,0-1.297-0.433-1.297-1.297c0-0.432,0.271-0.81,0.811-1.135
			c0.541-0.323,1.224-0.557,2.053-0.701c1.44-0.288,2.719-0.433,3.835-0.433c0.432,0,0.801,0.154,1.107,0.46
			c0.306,0.306,0.459,0.657,0.459,1.053c0,0.396-0.117,0.738-0.352,1.026s-0.531,0.432-0.891,0.432c-0.216,0-0.396-0.018-0.54-0.054
			h-0.432c-0.361,0-0.622,0.081-0.783,0.243c-0.162,0.162-0.243,0.459-0.243,0.892c0,3.492,0.216,8.75,0.647,15.771
			c0.072,1.297,0.217,3.205,0.432,5.725c0.181,1.657,0.271,3.35,0.271,5.078v2.052c0.216-0.035,0.575-0.054,1.081-0.054
			c1.512,0,2.268,0.631,2.268,1.891v0.324l-1.35,0.919c-0.036,0-0.154,0.009-0.352,0.026c-0.198,0.019-0.566,0.026-1.107,0.026
			c-1.152,0.073-1.89,0.108-2.215,0.108C179.111,151.634,177.545,151.094,177.545,150.014z"/>
		<path fill="#091512" d="M205.524,151.499c-0.216-0.234-0.378-0.639-0.486-1.215l-0.323-1.026v-0.108v-0.162
			c0-1.188-1.234-5.239-3.7-12.152c-2.468-6.914-4.402-12.026-5.807-15.34v27.168l0.216,0.378c0.036,0.073,0.108,0.198,0.217,0.379
			c0.107,0.181,0.162,0.36,0.162,0.539c0,0.469-0.162,0.864-0.487,1.188c-0.323,0.325-0.72,0.486-1.188,0.486
			c-1.153,0-1.729-1.098-1.729-3.295l-0.055-9.236c-0.036-2.771-0.054-5.869-0.054-9.29c0-1.152,0.054-2.826,0.162-5.023
			c0.108-2.269,0.162-3.942,0.162-5.022c0-1.692,0.648-3.025,1.944-3.997v0.323c0.217-0.071,0.36-0.107,0.433-0.107
			c0.827,0,1.871,1.44,3.133,4.321c1.008,2.304,1.917,4.734,2.728,7.291c0.81,2.558,1.881,6.194,3.214,10.911l0.54,1.944
			c0.827,2.917,1.458,5.005,1.89,6.266c0.721-7.742,1.081-16.888,1.081-27.438v-0.702c-0.036-0.216-0.055-0.45-0.055-0.702
			c0-1.08,0.433-1.621,1.297-1.621c0.504,0,0.892,0.198,1.161,0.594c0.271,0.397,0.405,0.901,0.405,1.514v4.05
			c-0.072,5.546-0.288,11.56-0.648,18.041s-0.792,10.138-1.296,10.965c-1.045,0.288-1.693,0.433-1.945,0.433
			C206.064,151.851,205.74,151.732,205.524,151.499z"/>
		<path fill="#091512" d="M220.648,150.823l-0.055-2.105c-0.036-0.612-0.054-1.297-0.054-2.053l0.054-1.837
			c-0.107-0.396-0.378-4.339-0.811-11.829c-0.432-7.489-0.685-12.296-0.756-14.421c-2.089-0.072-3.422-0.288-3.997-0.648
			c-0.396-0.288-0.594-0.612-0.594-0.973c0-0.288,0.188-0.549,0.566-0.782c0.378-0.234,0.765-0.352,1.161-0.352
			c1.008,0,2.232,0.072,3.674,0.217c1.367,0.18,2.592,0.27,3.673,0.27h0.432h0.433c1.115,0,1.674,0.432,1.674,1.296
			c0,0.432-0.181,0.783-0.54,1.053c-0.36,0.271-0.774,0.406-1.242,0.406c-0.324,0-0.792-0.055-1.404-0.163l-1.08-0.216l-0.055,0.271
			l-0.054,0.27c0,3.206,0.306,8.318,0.919,15.34c0.575,6.59,0.863,11.703,0.863,15.341c0,0.431-0.188,0.81-0.566,1.134
			c-0.379,0.324-0.802,0.485-1.27,0.485L220.648,150.823z"/>
		<path fill="#091512" d="M232.666,151.903c-0.379-0.323-0.586-0.72-0.622-1.188v-1.404v-1.08c-0.036-0.324-0.054-0.703-0.054-1.135
			c0-0.756-0.054-1.908-0.162-3.457l-0.108-3.457c0-1.764,0.055-4.393,0.163-7.886c0.143-3.133,0.215-5.761,0.215-7.886
			c0-0.504-0.054-1.26-0.161-2.269c-0.108-1.044-0.162-1.8-0.162-2.269c0-2.557,0.756-3.834,2.269-3.834
			c1.188,0,2.565,0.233,4.132,0.701c1.566,0.469,2.35,1.026,2.35,1.674c0,0.361-0.153,0.694-0.459,1
			c-0.307,0.306-0.675,0.549-1.107,0.729c-1.513-0.54-2.882-0.898-4.104-1.079c0.034,0.539,0.054,1.314,0.054,2.322
			c0,1.44-0.02,2.737-0.054,3.889c-0.108,1.729-0.163,3.024-0.163,3.889l0.163,0.864l0.863-0.054
			c0.288-0.035,0.648-0.054,1.08-0.054c1.729,0,2.594,0.504,2.594,1.512c0,0.397-0.163,0.729-0.486,0.999
			c-0.324,0.271-0.739,0.405-1.243,0.405c-0.647,0-1.152-0.035-1.512-0.107h-1.351c0.072,0.937,0.108,2.305,0.108,4.105
			s-0.02,3.421-0.054,4.86c-0.108,2.196-0.163,3.835-0.163,4.915c0,2.018,0.036,3.025,0.108,3.025l1.782-0.055
			c0.612-0.035,1.351-0.053,2.215-0.053c1.368,0,2.053,0.431,2.053,1.295c0,0.505-0.226,0.892-0.675,1.162
			c-0.451,0.27-1,0.404-1.647,0.404h-4.592C233.466,152.39,233.043,152.229,232.666,151.903z"/>
		<path fill="#091512" d="M260.563,151.499c-0.216-0.234-0.378-0.639-0.486-1.215l-0.324-1.026v-0.108v-0.162
			c0-1.188-1.233-5.239-3.699-12.152c-2.468-6.914-4.402-12.026-5.807-15.34v27.168l0.216,0.378
			c0.035,0.073,0.108,0.198,0.216,0.379c0.108,0.181,0.162,0.36,0.162,0.539c0,0.469-0.162,0.864-0.486,1.188
			c-0.323,0.325-0.72,0.486-1.188,0.486c-1.153,0-1.729-1.098-1.729-3.295l-0.054-9.236c-0.036-2.771-0.054-5.869-0.054-9.29
			c0-1.152,0.054-2.826,0.162-5.023c0.108-2.269,0.162-3.942,0.162-5.022c0-1.692,0.648-3.025,1.944-3.997v0.323
			c0.216-0.071,0.359-0.107,0.433-0.107c0.827,0,1.871,1.44,3.133,4.321c1.008,2.304,1.917,4.734,2.728,7.291
			c0.81,2.558,1.881,6.194,3.213,10.911l0.54,1.944c0.828,2.917,1.459,5.005,1.891,6.266c0.721-7.742,1.08-16.888,1.08-27.438
			v-0.702c-0.036-0.216-0.054-0.45-0.054-0.702c0-1.08,0.433-1.621,1.297-1.621c0.504,0,0.892,0.198,1.161,0.594
			c0.271,0.397,0.405,0.901,0.405,1.514v4.05c-0.072,5.546-0.289,11.56-0.648,18.041c-0.36,6.481-0.793,10.138-1.296,10.965
			c-1.045,0.288-1.693,0.433-1.945,0.433C261.104,151.851,260.779,151.732,260.563,151.499z"/>
		<path fill="#091512" d="M56.99,170.876c0.783,0.369,1.417,0.941,1.903,1.715c0.486,0.774,0.729,1.729,0.729,2.863v8.642h-2.16
			v-8.426c0-1.171-0.294-2.039-0.878-2.606c-0.586-0.567-1.354-0.851-2.31-0.851c-0.72,0-1.382,0.176-1.984,0.526
			c-0.604,0.352-1.09,0.865-1.459,1.539c-0.369,0.676-0.554,1.482-0.554,2.418v7.399h-2.16v-8.426c0-1.171-0.293-2.039-0.878-2.606
			s-1.354-0.851-2.31-0.851c-0.647,0-1.278,0.167-1.89,0.499c-0.612,0.334-1.117,0.852-1.513,1.554
			c-0.396,0.702-0.594,1.575-0.594,2.62v7.21h-2.16v-13.503h1.89l0.135,2.106c0.469-0.792,1.085-1.386,1.851-1.782
			c0.765-0.396,1.589-0.595,2.472-0.595c0.989,0,1.903,0.226,2.74,0.675c0.838,0.451,1.472,1.107,1.904,1.973
			c0.396-0.865,1.044-1.521,1.944-1.973c0.9-0.449,1.818-0.675,2.755-0.675C55.365,170.322,56.207,170.507,56.99,170.876z"/>
		<path fill="#091512" d="M76.354,172.186c1.161,1.242,1.742,2.962,1.742,5.159c0,2.196-0.581,3.915-1.742,5.157
			c-1.161,1.243-2.76,1.864-4.794,1.864s-3.632-0.621-4.793-1.864c-1.162-1.242-1.742-2.961-1.742-5.157
			c0-2.197,0.58-3.917,1.742-5.159c1.161-1.241,2.759-1.863,4.793-1.863S75.192,170.944,76.354,172.186z M68.347,173.563
			c-0.774,0.918-1.162,2.179-1.162,3.781c0,1.602,0.388,2.862,1.162,3.78c0.773,0.918,1.845,1.377,3.213,1.377
			s2.439-0.459,3.214-1.377c0.773-0.918,1.161-2.179,1.161-3.78c0-1.603-0.388-2.863-1.161-3.781
			c-0.774-0.918-1.846-1.378-3.214-1.378S69.12,172.646,68.347,173.563z"/>
		<path fill="#091512" d="M94.839,170.593l-5.617,13.503h-2.161l-5.617-13.503h2.458l4.268,11.315l4.401-11.315H94.839z"/>
		<path fill="#091512" d="M98.931,167.555c-0.298-0.298-0.446-0.689-0.446-1.175c0-0.486,0.148-0.878,0.446-1.176
			c0.297-0.296,0.688-0.445,1.174-0.445c0.486,0,0.878,0.149,1.176,0.445c0.297,0.298,0.445,0.689,0.445,1.176
			c0,0.485-0.148,0.877-0.445,1.175c-0.298,0.297-0.689,0.444-1.176,0.444C99.619,167.999,99.228,167.852,98.931,167.555z
			 M101.186,184.096h-2.16v-13.503h2.16V184.096z"/>
		<path fill="#091512" d="M117.902,171.646c0.99,0.883,1.485,2.152,1.485,3.809v8.642h-2.161v-7.886
			c0-1.404-0.301-2.421-0.904-3.052c-0.604-0.63-1.409-0.945-2.417-0.945c-0.721,0-1.396,0.158-2.025,0.473
			c-0.631,0.315-1.147,0.828-1.553,1.54c-0.405,0.711-0.608,1.606-0.608,2.687v7.184h-2.16v-13.503h1.891l0.135,2.106
			c0.45-0.811,1.071-1.408,1.864-1.796c0.792-0.388,1.683-0.581,2.673-0.581C115.651,170.322,116.912,170.764,117.902,171.646z"/>
		<path fill="#091512" d="M136.158,183.231c0.72,0.576,1.081,1.359,1.081,2.35c0,0.864-0.298,1.625-0.892,2.283
			c-0.595,0.656-1.4,1.16-2.417,1.512c-1.018,0.351-2.139,0.526-3.362,0.526c-2.053,0-3.602-0.328-4.646-0.986
			c-1.044-0.656-1.566-1.516-1.566-2.578c0-0.612,0.212-1.152,0.635-1.62c0.423-0.469,1.003-0.802,1.742-1
			c-0.559-0.271-1.004-0.612-1.337-1.026c-0.334-0.414-0.5-0.9-0.5-1.458c0-0.666,0.18-1.22,0.54-1.661s0.855-0.77,1.485-0.985
			c-0.648-0.396-1.139-0.914-1.472-1.554c-0.333-0.639-0.5-1.354-0.5-2.146c0-0.882,0.234-1.669,0.702-2.363
			c0.468-0.693,1.125-1.232,1.973-1.62c0.845-0.388,1.8-0.581,2.862-0.581c1.008,0,1.927,0.181,2.755,0.54
			c0.503-1.836,1.772-2.755,3.808-2.755l0.486,1.892c-1.765,0-2.836,0.494-3.215,1.484c0.54,0.415,0.959,0.91,1.257,1.486
			c0.297,0.576,0.445,1.215,0.445,1.917c0,0.883-0.234,1.67-0.702,2.363c-0.469,0.693-1.126,1.233-1.972,1.62
			c-0.847,0.388-1.801,0.58-2.862,0.58c-0.793,0-1.486-0.08-2.079-0.242c-0.541,0.126-0.928,0.324-1.162,0.594
			s-0.351,0.64-0.351,1.107s0.161,0.828,0.486,1.08c0.323,0.253,0.756,0.378,1.296,0.378h4.482
			C134.438,182.367,135.438,182.656,136.158,183.231z M134.052,187.431c0.792-0.441,1.188-0.977,1.188-1.606
			c0-0.522-0.203-0.918-0.607-1.188c-0.405-0.27-1.095-0.405-2.066-0.405h-3.618c-0.829,0-1.468,0.149-1.918,0.446
			s-0.675,0.706-0.675,1.229c0,0.685,0.378,1.22,1.134,1.607c0.756,0.387,1.863,0.58,3.321,0.58
			C132.179,188.093,133.259,187.872,134.052,187.431z M128.138,172.861c-0.631,0.522-0.946,1.197-0.946,2.025
			s0.315,1.504,0.946,2.025c0.63,0.522,1.413,0.783,2.35,0.783c0.936,0,1.719-0.261,2.35-0.783c0.63-0.521,0.944-1.197,0.944-2.025
			s-0.314-1.503-0.944-2.025c-0.631-0.522-1.414-0.783-2.35-0.783C129.551,172.078,128.768,172.339,128.138,172.861z"/>
		<path fill="#091512" d="M163.503,172.199c1.106,1.252,1.66,2.967,1.66,5.146s-0.554,3.894-1.66,5.145
			c-1.107,1.252-2.606,1.877-4.497,1.877c-0.99,0-1.877-0.216-2.66-0.648c-0.783-0.432-1.391-1.008-1.823-1.729v7.778h-2.16v-19.175
			h1.891l0.135,2.35c0.396-0.792,1.003-1.427,1.823-1.904c0.819-0.477,1.751-0.716,2.795-0.716
			C160.896,170.322,162.396,170.948,163.503,172.199z M161.869,181.085c0.756-0.928,1.134-2.175,1.134-3.74
			c0-1.566-0.378-2.813-1.134-3.74c-0.757-0.928-1.792-1.392-3.106-1.392c-1.296,0-2.327,0.45-3.093,1.351
			c-0.765,0.9-1.147,2.106-1.147,3.618v0.324c0,1.513,0.383,2.719,1.147,3.619c0.766,0.901,1.797,1.351,3.093,1.351
			C160.077,182.476,161.112,182.013,161.869,181.085z"/>
		<path fill="#091512" d="M171.982,167.555c-0.298-0.298-0.445-0.689-0.445-1.175c0-0.486,0.147-0.878,0.445-1.176
			c0.297-0.296,0.688-0.445,1.174-0.445s0.878,0.149,1.176,0.445c0.297,0.298,0.445,0.689,0.445,1.176
			c0,0.485-0.148,0.877-0.445,1.175c-0.298,0.297-0.689,0.444-1.176,0.444S172.279,167.852,171.982,167.555z M174.236,184.096
			h-2.159v-13.503h2.159V184.096z"/>
		<path fill="#091512" d="M193.007,184.096l-3.728-5.212l-3.834,5.212h-2.512l5.185-6.806l-4.861-6.697h2.701l3.564,4.996
			l3.511-4.996h2.539l-4.889,6.616l4.97,6.887H193.007z"/>
		<path fill="#091512" d="M218.096,178.154h-10.182c0.126,1.369,0.581,2.431,1.364,3.188c0.783,0.756,1.796,1.134,3.038,1.134
			c0.99,0,1.813-0.171,2.471-0.513c0.657-0.343,1.104-0.838,1.337-1.486l1.81,0.946c-0.54,0.954-1.26,1.683-2.16,2.188
			c-0.9,0.504-2.053,0.756-3.457,0.756c-2.035,0-3.633-0.621-4.794-1.864c-1.161-1.242-1.741-2.961-1.741-5.157
			c0-2.197,0.553-3.917,1.66-5.159c1.107-1.241,2.678-1.863,4.713-1.863c1.26,0,2.35,0.279,3.268,0.838
			c0.918,0.558,1.611,1.314,2.08,2.268c0.468,0.955,0.701,2.026,0.701,3.215C218.203,177.146,218.167,177.65,218.096,178.154z
			 M209.278,173.267c-0.729,0.702-1.175,1.692-1.337,2.971h8.183c-0.144-1.261-0.559-2.246-1.242-2.958
			c-0.685-0.711-1.593-1.066-2.728-1.066C210.966,172.213,210.008,172.563,209.278,173.267z"/>
		<path fill="#091512" d="M235.164,180.477c0,0.685,0.104,1.157,0.311,1.418c0.207,0.262,0.589,0.392,1.147,0.392
			c0.378,0,0.706-0.027,0.985-0.08c0.279-0.055,0.608-0.153,0.986-0.298l-0.352,2.079c-0.594,0.252-1.26,0.379-1.998,0.379
			c-1.099,0-1.913-0.298-2.444-0.892s-0.796-1.503-0.796-2.728v-16.366h2.16V180.477z"/>
		<path fill="#091512" d="M255.959,183.596c-1.045-0.513-1.81-1.273-2.296-2.281l1.755-1.216c0.307,0.793,0.838,1.387,1.594,1.782
			c0.756,0.396,1.647,0.595,2.674,0.595c1.063,0,1.873-0.189,2.431-0.567s0.837-0.854,0.837-1.432c0-0.521-0.261-0.94-0.783-1.256
			c-0.521-0.314-1.44-0.589-2.754-0.823c-1.297-0.233-2.323-0.518-3.079-0.851s-1.306-0.757-1.647-1.27s-0.513-1.148-0.513-1.904
			c0-0.737,0.216-1.413,0.648-2.025c0.432-0.611,1.053-1.103,1.862-1.472c0.811-0.369,1.747-0.554,2.81-0.554
			c1.44,0,2.597,0.266,3.47,0.797c0.874,0.531,1.499,1.346,1.877,2.444l-1.836,1.08c-0.288-0.864-0.725-1.485-1.311-1.863
			c-0.585-0.378-1.318-0.567-2.2-0.567c-0.883,0-1.63,0.198-2.242,0.594c-0.612,0.396-0.918,0.855-0.918,1.378
			c0,0.594,0.266,1.053,0.797,1.377c0.53,0.324,1.48,0.604,2.849,0.838c1.873,0.306,3.196,0.766,3.971,1.377
			c0.773,0.612,1.161,1.477,1.161,2.593c0,0.774-0.229,1.463-0.689,2.066c-0.458,0.603-1.115,1.075-1.971,1.417
			s-1.851,0.514-2.984,0.514C258.174,184.366,257.003,184.109,255.959,183.596z"/>
	</g>
</g>
</svg>
